<svg width="20" height="21" viewBox="0 0 20 21" fill="none" xmlns="http://www.w3.org/2000/svg">
<path fill-rule="evenodd" clip-rule="evenodd" d="M4.16675 10.81C3.70651 10.81 3.33341 11.1831 3.33341 11.6433L3.33341 17.4766C3.33341 17.9369 3.70651 18.31 4.16675 18.31H15.8334C16.2937 18.31 16.6667 17.9369 16.6667 17.4766V11.6433C16.6667 11.1831 16.2937 10.81 15.8334 10.81L4.16675 10.81ZM1.66675 11.6433C1.66675 10.2626 2.78604 9.14331 4.16675 9.14331L15.8334 9.14331C17.2141 9.14331 18.3334 10.2626 18.3334 11.6433V17.4766C18.3334 18.8574 17.2141 19.9766 15.8334 19.9766H4.16675C2.78604 19.9766 1.66675 18.8574 1.66675 17.4766L1.66675 11.6433Z" fill="#6360FF"/>
<path fill-rule="evenodd" clip-rule="evenodd" d="M10 3.30998C9.11594 3.30998 8.2681 3.66117 7.64298 4.28629C7.01786 4.91141 6.66667 5.75926 6.66667 6.64331L6.66667 9.97664C6.66667 10.4369 6.29357 10.81 5.83333 10.81C5.3731 10.81 5 10.4369 5 9.97664V6.64331C5 5.31723 5.52678 4.04546 6.46447 3.10778C7.40215 2.17009 8.67392 1.64331 10 1.64331C11.3261 1.64331 12.5979 2.17009 13.5355 3.10778C14.4732 4.04546 15 5.31723 15 6.64331L15 9.97664C15 10.4369 14.6269 10.81 14.1667 10.81C13.7064 10.81 13.3333 10.4369 13.3333 9.97664L13.3333 6.64331C13.3333 5.75926 12.9821 4.91141 12.357 4.28629C11.7319 3.66117 10.8841 3.30998 10 3.30998Z" fill="#6360FF"/>
</svg>
