<svg width="20" height="21" viewBox="0 0 20 21" fill="none" xmlns="http://www.w3.org/2000/svg">
<path fill-rule="evenodd" clip-rule="evenodd" d="M3.33325 4.97666C2.87682 4.97666 2.49992 5.35357 2.49992 5.81L2.49992 15.81C2.49992 16.2664 2.87682 16.6433 3.33325 16.6433H16.6666C17.123 16.6433 17.4999 16.2664 17.4999 15.81V5.81C17.4999 5.35357 17.123 4.97666 16.6666 4.97666L3.33325 4.97666ZM0.833252 5.81C0.833252 4.43309 1.95635 3.31 3.33325 3.31L16.6666 3.31C18.0435 3.31 19.1666 4.43309 19.1666 5.81V15.81C19.1666 17.1869 18.0435 18.31 16.6666 18.31H3.33325C1.95635 18.31 0.833252 17.1869 0.833252 15.81L0.833252 5.81Z" fill="#6360FF"/>
<path fill-rule="evenodd" clip-rule="evenodd" d="M0.983964 5.33208C1.24789 4.95504 1.7675 4.86335 2.14454 5.12727L9.99999 10.6261L17.8554 5.12727C18.2325 4.86335 18.7521 4.95504 19.016 5.33208C19.2799 5.70912 19.1882 6.22873 18.8112 6.49266L10.4779 12.326C10.1909 12.5268 9.80904 12.5268 9.52211 12.326L1.18877 6.49266C0.81173 6.22873 0.720035 5.70912 0.983964 5.33208Z" fill="#6360FF"/>
</svg>
