<svg width="15" height="19" viewBox="0 0 15 19" fill="none" xmlns="http://www.w3.org/2000/svg">
<path d="M14.1667 0.575623H0.833333C0.61232 0.575623 0.400358 0.674178 0.244078 0.849609C0.0877975 1.02504 0 1.26298 0 1.51107V3.93388C0 4.42312 0.1775 4.90395 0.485833 5.25006L5 10.3174V17.4137C5.00016 17.5731 5.03656 17.7298 5.10575 17.8689C5.17494 18.0081 5.27462 18.1252 5.39537 18.209C5.51612 18.2928 5.65393 18.3407 5.79575 18.348C5.93758 18.3554 6.07873 18.3219 6.20583 18.2509L9.53917 16.38C9.82167 16.221 10 15.8973 10 15.5428V10.3174L14.5142 5.25006C14.8225 4.90395 15 4.42312 15 3.93388V1.51107C15 1.26298 14.9122 1.02504 14.7559 0.849609C14.5996 0.674178 14.3877 0.575623 14.1667 0.575623ZM8.5775 9.26875C8.49996 9.35547 8.43847 9.45855 8.39657 9.57206C8.35467 9.68556 8.33317 9.80725 8.33333 9.93011V14.9647L6.66667 15.9001V9.93011C6.66683 9.80725 6.64533 9.68556 6.60343 9.57206C6.56152 9.45855 6.50004 9.35547 6.4225 9.26875L1.66667 3.93388V2.44652H13.3342L13.3358 3.92734L8.5775 9.26875Z" fill="#34313A"/>
</svg>
